<?xml version="1.0" encoding="UTF-8"?>
<svg id="Layer_1" data-name="Layer 1" xmlns="http://www.w3.org/2000/svg" viewBox="0 0 166.96 113.93">
  <defs>
    <style>
      .cls-1 {
        stroke-miterlimit: 10;
      }

      .cls-1, .cls-2, .cls-3 {
        fill: none;
        stroke: #231f20;
      }

      .cls-1, .cls-2, .cls-3, .cls-4 {
        stroke-linecap: round;
      }

      .cls-5 {
        fill: #231f20;
      }

      .cls-6, .cls-4 {
        fill: #fff;
      }

      .cls-2, .cls-3, .cls-4 {
        stroke-linejoin: round;
      }

      .cls-3 {
        stroke-width: .5px;
      }

      .cls-4 {
        stroke: #fff;
      }
    </style>
  </defs>
  <rect class="cls-4" x=".5" y=".5" width="165.96" height="112.93"/>
  <g>
    <path class="cls-5" d="M91.99,1.34l-44.79,111.71c-31.76,2.56-52.47-7.48-45.27-40.65l19.67-.39c-7.03,24.54,11.34,19.96,14.58,13.53C39.57,78.38,70.01,1.35,69.93,1.34h22.06Z"/>
    <path class="cls-2" d="M47.2,113.05L91.99,1.34h-22.06c.09,0-30.36,77.03-33.75,84.2-3.24,6.43-21.61,11.01-14.58-13.53l-19.67.39c-7.21,33.16,13.5,43.21,45.27,40.65Z"/>
  </g>
  <g>
    <g>
      <path class="cls-5" d="M108.13,22.06l-25.12,70.76,31.42-.08c42.31.69,39.97-66.72,18.49-70.79l-24.78.11h0ZM139.95,1.53c37.79,6.41,41.92,112.68-32.52,111.6l-55.3.12L96.34,1.69h.02s43.59-.16,43.59-.16Z"/>
      <path class="cls-6" d="M132.91,21.96c21.48,4.07,23.82,71.48-18.49,70.79l-31.42.08,25.12-70.76h0l24.78-.11Z"/>
    </g>
    <g>
      <path class="cls-1" d="M96.36,1.64l-.02.06-44.21,111.55,55.3-.12c74.44,1.08,70.31-105.18,32.52-111.6l-43.59.17"/>
      <path class="cls-3" d="M108.15,22.02l-.02.04-25.12,70.76,31.42-.08c42.31.69,39.97-66.72,18.49-70.79l-24.78.11"/>
    </g>
  </g>
</svg>