<?xml version="1.0" encoding="UTF-8"?>
<svg id="Layer_1" data-name="Layer 1" xmlns="http://www.w3.org/2000/svg" viewBox="0 0 222.65 159.67">
  <defs>
    <style>
      .cls-1 {
        stroke: #231f20;
      }

      .cls-1, .cls-2 {
        fill: none;
        stroke-linecap: round;
        stroke-miterlimit: 10;
      }

      .cls-3 {
        fill: #231f20;
      }

      .cls-4 {
        fill: #fff;
      }

      .cls-2 {
        stroke: #fff;
      }
    </style>
  </defs>
  <g>
    <polygon class="cls-3" points=".52 157.36 1.52 124.3 63.36 124.31 110.45 1.24 147.05 .75 144.83 6.94 90.05 157.36 .52 157.36"/>
    <path class="cls-3" d="M203.31.5c39.44,70.06,12.91,122.72-41.96,158.5l-71.32.17L144.83,6.94l2.25-6.19,56.23-.25ZM163.3,99.42c16.69-11.19,20.7-24.25,12.03-39.16h-12.21l-11.85,39.16h12.03Z"/>
    <path class="cls-4" d="M175.33,60.26c8.67,14.91,4.66,27.97-12.03,39.16h-12.03l11.85-39.16h12.21Z"/>
    <polygon class="cls-3" points="147.08 .68 147.07 .75 147.05 .75 147.08 .68"/>
    <polygon class="cls-3" points="147.08 .75 144.83 6.94 147.05 .75 147.07 .75 147.08 .75"/>
  </g>
  <g>
    <polyline class="cls-1" points="147.07 .75 147.05 .75 110.45 1.24 63.36 124.31 1.52 124.3"/>
    <polyline class="cls-1" points="1.52 124.3 .52 157.36 90.05 157.36 144.83 6.94 147.08 .75"/>
    <line class="cls-1" x1="147.08" y1=".75" x2="147.07" y2=".75"/>
    <path class="cls-2" d="M147.08.68l-.03.07-2.22,6.19-54.8,152.23,71.32-.17C216.22,123.22,242.75,70.56,203.31.5l-56.23.25"/>
    <line class="cls-2" x1="147.08" y1=".68" x2="147.09" y2=".65"/>
    <path class="cls-1" d="M175.33,60.26h-12.21l-11.85,39.16h12.03c16.69-11.19,20.7-24.25,12.03-39.16Z"/>
  </g>
</svg>